<svg width="48" height="48" viewBox="0 0 48 48" fill="none" xmlns="http://www.w3.org/2000/svg">
  <rect width="48" height="48" rx="12" fill="#6067F9"/>
  <g transform="translate(8, 6) scale(1.32)">
    <path d="M22.5616 0C20.5718 2.78833 18.0754 4.7215 15.1271 6.02C14.1163 5.73398 13.0704 5.59182 12.0201 5.59767C10.9699 5.59206 9.9242 5.73442 8.91356 6.02058C5.96468 4.7215 3.46889 2.78833 1.47855 0C0.867833 1.52075 -1.43892 6.75967 1.34128 14.0793C1.34128 14.0793 0.446149 17.9025 2.08926 21.1873C2.08926 21.1873 4.45883 20.1104 6.33343 21.6207C8.30284 23.226 7.67119 24.7572 9.06129 26.0884C10.2507 27.3029 12.0305 27.3029 12.0305 27.3029C12.0305 27.3029 13.8103 27.3029 15.0003 26.0884C16.3904 24.7677 15.7588 23.226 17.7282 21.6201C19.6028 20.1098 21.9724 21.1873 21.9724 21.1873C23.6044 17.9031 22.7198 14.0793 22.7198 14.0793C25.479 6.75967 23.1612 1.52075 22.5616 0ZM2.8163 13.076C1.2994 9.95983 0.888771 5.68167 1.84672 2.30242C3.11061 5.50258 4.82759 6.94983 6.87028 8.47058C5.99609 10.2661 4.36344 11.9671 2.8163 13.076ZM7.16575 18.5576C5.97573 18.0297 5.7233 16.9837 5.7233 16.9837C7.35536 15.9594 9.7354 16.7411 9.81974 19.1701C8.55585 18.4094 8.13475 18.9904 7.16575 18.5576ZM12.0107 27.1868C11.1569 27.1868 10.4619 26.5743 10.4619 25.8242C10.4619 25.074 11.1569 24.4615 12.0102 24.4615C12.8634 24.4615 13.5585 25.074 13.5585 25.8242C13.5585 26.5743 12.8745 27.1868 12.0107 27.1868ZM16.8651 18.5576C15.8961 18.9799 15.475 18.4094 14.2215 19.1701C14.2954 16.7411 16.6859 15.9594 18.3186 16.9837C18.3081 16.9942 18.0551 18.0396 16.8651 18.5576ZM21.2145 13.076C19.6662 11.9776 18.0341 10.2661 17.1605 8.47058C19.2032 6.94983 20.9196 5.51308 22.1835 2.30242C23.1415 5.68225 22.7308 9.95983 21.2145 13.076Z" fill="white"/>
  </g>
</svg>
